# xmcd
#
# Track frame offsets: 
#        150
#        22158
#        40125
#        55704
#        74924
#        94310
#        111052
#        128861
#        150076
#        170523
#        193065
#        215029
#
# Disc length: 3097 seconds
#
# Revision: 8
# Processed by: cddbd v1.5.2PL0 Copyright (c) Steve Scherf et al.
# Submitted via: ExactAudioCopy v1.0b3
#
DISCID=ad0c170c
DTITLE=James Taylor - October Road
DYEAR=2002
DGENRE=Rock
TTITLE0=September Grass
TTITLE1=October Road
TTITLE2=On The 4th Of July
TTITLE3=Whenever You're Ready
TTITLE4=Belfast To Boston
TTITLE5=Mean Old Man
TTITLE6=My Traveling Star
TTITLE7=Raised Up Family
TTITLE8=Carry Me On My Way
TTITLE9=Caroline I See You
TTITLE10=Baby Buffalo
TTITLE11=Have Yourself A Merry Little Christmas
EXTD=YEAR: 2002 ID3G: 17
EXTT0=Written by John I. Sheldon.
EXTT1=
EXTT2=
EXTT3=
EXTT4=
EXTT5=
EXTT6=
EXTT7=
EXTT8=
EXTT9=
EXTT10=
EXTT11=Written by (Hugh Martin/Ralph Blane) Albert and Son Pty Ltd..
PLAYORDER=
